<svg width="408" height="70" viewBox="0 0 408 70" fill="none" xmlns="http://www.w3.org/2000/svg">
<path d="M258.682 13.5484L250.459 29.996L242.236 13.5484H225.057L242.236 46.583L230.636 70H247.229L275.862 13.5484H258.682Z" fill="#F6F7F9"/>
<path d="M281.287 13.5484L253.282 70H269.85L298.442 13.5484H281.287Z" fill="#0000FF"/>
<path d="M17.4771 48.0968C14.1803 48.0968 10.9965 47.6452 7.92564 46.7419C4.8999 45.8387 2.25802 44.4839 0 42.6774L5.55472 34.6161C6.77405 35.7 8.37724 36.671 10.3643 37.529C12.3514 38.3419 14.3384 38.7484 16.3255 38.7484C17.0932 38.7484 17.7706 38.6581 18.3577 38.4774C18.9899 38.2968 19.306 37.9806 19.306 37.529C19.306 37.1677 19.1254 36.8968 18.7641 36.7161C18.448 36.5355 17.7254 36.3548 16.5964 36.1742L14.1578 35.7C9.23529 34.7516 5.75794 33.3968 3.72573 31.6355C1.69351 29.8742 0.677405 27.5032 0.677405 24.5226C0.677405 22.671 1.26449 20.8645 2.43866 19.1032C3.65799 17.2968 5.5773 15.8065 8.1966 14.6323C10.8159 13.4581 14.2707 12.871 18.5609 12.871C22.0834 12.871 25.2446 13.3226 28.0446 14.2258C30.8445 15.0839 33.1251 16.2806 34.8864 17.8161L29.5349 25.5387C28.2704 24.5452 26.6446 23.7548 24.6575 23.1677C22.7157 22.5355 20.9318 22.2194 19.306 22.2194C18.5835 22.2194 17.9964 22.2645 17.5448 22.3548C17.0932 22.4452 16.7545 22.5806 16.5287 22.7613C16.348 22.8968 16.2577 23.0774 16.2577 23.3032C16.2577 23.6194 16.4835 23.9129 16.9351 24.1839C17.3867 24.4548 18.2674 24.7032 19.577 24.929L24.3866 25.7419C28.0446 26.329 30.709 27.5032 32.38 29.2645C34.0961 31.0258 34.9541 33.1936 34.9541 35.7677C34.9541 37.9806 34.3444 40.0355 33.1251 41.9323C31.9509 43.7839 30.0768 45.2742 27.5026 46.4032C24.9737 47.5323 21.6318 48.0968 17.4771 48.0968Z" fill="white"/>
<path d="M38.347 47.4194V0H53.9273V20.4581C54.8305 18.0194 56.1627 16.1452 57.924 14.8355C59.7304 13.5258 61.9207 12.871 64.4948 12.871C66.7528 12.871 68.6721 13.3226 70.2527 14.2258C71.8333 15.0839 73.0301 16.371 73.843 18.0871C74.701 19.7581 75.1301 21.8129 75.1301 24.2516V47.4194H59.5497V28.3161C59.5497 26.7806 59.3465 25.7419 58.9401 25.2C58.5788 24.6129 57.9917 24.3194 57.1788 24.3194C56.4562 24.3194 55.8466 24.5226 55.3498 24.929C54.8531 25.2903 54.4918 25.8774 54.266 26.6903C54.0402 27.4581 53.9273 28.4516 53.9273 29.671V47.4194H38.347Z" fill="white"/>
<path d="M97.9665 12.871C101.76 12.871 105.057 13.571 107.857 14.971C110.702 16.3258 112.915 18.3129 114.495 20.9323C116.076 23.5516 116.866 26.7355 116.866 30.4839C116.866 34.1871 116.076 37.371 114.495 40.0355C112.915 42.6548 110.702 44.6645 107.857 46.0645C105.057 47.4194 101.76 48.0968 97.9665 48.0968C94.2182 48.0968 90.9215 47.4194 88.0764 46.0645C85.2313 44.6645 83.0185 42.6548 81.4379 40.0355C79.8572 37.371 79.0669 34.1871 79.0669 30.4839C79.0669 26.7355 79.8572 23.5516 81.4379 20.9323C83.0185 18.3129 85.2313 16.3258 88.0764 14.971C90.9215 13.571 94.2182 12.871 97.9665 12.871ZM97.9665 23.371C97.2891 23.371 96.702 23.5742 96.2053 23.9806C95.7085 24.3419 95.3247 25.0419 95.0537 26.0806C94.8279 27.1194 94.715 28.5871 94.715 30.4839C94.715 32.3806 94.8279 33.8484 95.0537 34.8871C95.3247 35.8806 95.7085 36.5806 96.2053 36.9871C96.702 37.3936 97.2891 37.5968 97.9665 37.5968C98.6891 37.5968 99.2762 37.3936 99.7278 36.9871C100.225 36.5806 100.586 35.8806 100.812 34.8871C101.083 33.8484 101.218 32.3806 101.218 30.4839C101.218 28.5871 101.083 27.1194 100.812 26.0806C100.586 25.0419 100.225 24.3419 99.7278 23.9806C99.2762 23.5742 98.6891 23.371 97.9665 23.371Z" fill="white"/>
<path d="M120.84 61.6452V13.5484H134.997L135.742 28.4516L133.981 26.6903C134.117 24.0258 134.681 21.6548 135.675 19.5774C136.668 17.5 138.046 15.8742 139.807 14.7C141.568 13.4806 143.646 12.871 146.039 12.871C148.839 12.871 151.187 13.571 153.084 14.971C155.026 16.3258 156.494 18.2903 157.487 20.8645C158.481 23.4387 158.977 26.5774 158.977 30.2806C158.977 34.029 158.458 37.2355 157.419 39.9C156.426 42.5645 154.958 44.5968 153.016 45.9968C151.074 47.3968 148.726 48.0968 145.971 48.0968C142.675 48.0968 140.146 47.0355 138.384 44.9129C136.623 42.7452 135.517 40.0355 135.065 36.7839L136.42 34.7516V61.6452H120.84ZM139.739 37.1226C140.823 37.1226 141.681 36.6936 142.313 35.8355C142.946 34.9323 143.262 33.1484 143.262 30.4839C143.262 27.8194 142.946 26.0355 142.313 25.1323C141.681 24.229 140.823 23.7774 139.739 23.7774C139.062 23.7774 138.475 24.0258 137.978 24.5226C137.481 24.9742 137.097 25.6968 136.826 26.6903C136.555 27.6387 136.42 28.9032 136.42 30.4839C136.42 31.929 136.533 33.1484 136.759 34.1419C136.984 35.1355 137.346 35.8806 137.842 36.3774C138.339 36.8742 138.971 37.1226 139.739 37.1226Z" fill="white"/>
<path d="M181.138 26.2839C181.138 25.2452 180.89 24.4323 180.393 23.8452C179.941 23.2581 179.219 22.9645 178.225 22.9645C177.277 22.9645 176.487 23.2355 175.854 23.7774C175.222 24.3194 174.861 25.4032 174.771 27.029L161.629 25.1323C161.945 21.3839 163.571 18.4032 166.506 16.1903C169.442 13.9774 173.709 12.871 179.309 12.871C183.238 12.871 186.467 13.4129 188.996 14.4968C191.57 15.5806 193.467 17.0935 194.686 19.0355C195.951 20.9774 196.583 23.2355 196.583 25.8097V36.3097C196.583 38.1613 197.464 39.0871 199.225 39.0871C199.722 39.0871 200.105 39.0194 200.376 38.8839L199.699 46.8774C198.028 47.6903 196.018 48.0968 193.67 48.0968C191.548 48.0968 189.651 47.8032 187.98 47.2161C186.354 46.5839 185.067 45.6581 184.119 44.4387C183.215 43.1742 182.764 41.571 182.764 39.629V38.9516H184.254C184.209 40.6677 183.645 42.2258 182.561 43.6258C181.522 44.9806 180.122 46.0645 178.361 46.8774C176.6 47.6903 174.59 48.0968 172.332 48.0968C169.938 48.0968 167.906 47.7355 166.235 47.0129C164.609 46.2903 163.368 45.2516 162.509 43.8968C161.651 42.5419 161.222 40.9387 161.222 39.0871C161.222 36.6032 162.013 34.5936 163.593 33.0581C165.174 31.4774 167.455 30.3935 170.435 29.8065L182.222 27.3677L182.154 32.8548L178.496 33.7355C177.548 33.9613 176.87 34.3452 176.464 34.8871C176.058 35.3839 175.854 36.0161 175.854 36.7839C175.854 37.5065 176.08 38.0936 176.532 38.5452C176.983 38.9968 177.616 39.2226 178.428 39.2226C178.79 39.2226 179.128 39.1548 179.445 39.0194C179.806 38.8839 180.099 38.6806 180.325 38.4097C180.596 38.1387 180.799 37.8226 180.935 37.4613C181.07 37.0548 181.138 36.6032 181.138 36.1065V26.2839Z" fill="white"/>
<path d="M218.185 0V33.9387C218.185 35.2936 218.388 36.2871 218.794 36.9194C219.201 37.5516 219.923 37.8677 220.962 37.8677C221.459 37.8677 221.888 37.8452 222.249 37.8C222.656 37.7097 223.04 37.6194 223.401 37.529L222.723 45.929C221.865 46.5613 220.623 47.0806 218.998 47.4871C217.417 47.8936 215.859 48.0968 214.324 48.0968C210.124 48.0968 207.12 47.1936 205.314 45.3871C203.508 43.5807 202.604 40.5548 202.604 36.3097V0H218.185Z" fill="white"/>
<path d="M305.51 47.4194V38.4774L316.077 26.8258L319.261 23.7097L314.316 23.8452H305.51V13.5484H336.467V22.4903L326.103 34.0065L322.784 37.2581L328.338 37.1226H337.145V47.4194H305.51Z" fill="white"/>
<path d="M358.951 48.0367C354.886 48.0367 351.409 47.3593 348.519 46.0044C345.628 44.6044 343.415 42.5948 341.88 39.9754C340.345 37.3561 339.577 34.1722 339.577 30.4238C339.577 26.6754 340.345 23.4915 341.88 20.8722C343.461 18.2528 345.651 16.2657 348.451 14.9109C351.296 13.5109 354.593 12.8109 358.341 12.8109C362.18 12.8109 365.431 13.5109 368.096 14.9109C370.805 16.2657 372.86 18.1851 374.26 20.669C375.66 23.1528 376.36 26.0431 376.36 29.3399C376.36 30.0625 376.315 30.8077 376.224 31.5754C376.179 32.3431 376.112 32.9528 376.021 33.4044H349.602V27.6464H369.247C369.247 27.6464 364.911 33.1681 363.36 30.484C361.863 27.8937 361.638 26.269 361.186 25.0044C360.78 23.7399 359.854 23.1077 358.409 23.1077C357.46 23.1077 356.67 23.3335 356.038 23.7851C355.451 24.2367 355.022 25.027 354.751 26.156C354.48 27.2399 354.344 28.7528 354.344 30.6948C354.344 32.6367 354.525 34.127 354.886 35.1657C355.247 36.1593 355.767 36.8367 356.444 37.198C357.167 37.5141 358.07 37.6722 359.154 37.6722C360.328 37.6722 361.231 37.4238 361.863 36.927C362.541 36.3851 362.992 35.6625 363.218 34.7593L375.75 38.1464C375.253 40.3593 374.147 42.2109 372.431 43.7012C370.715 45.1464 368.66 46.2303 366.267 46.9528C363.918 47.6754 361.48 48.0367 358.951 48.0367Z" fill="white"/>
<path d="M380.159 47.4194V13.5484H394.181L394.52 22.0161C395.287 19.2161 396.462 17.0032 398.042 15.3774C399.668 13.7065 401.813 12.871 404.478 12.871C405.516 12.871 406.307 12.9613 406.848 13.1419C407.39 13.3226 407.774 13.5032 408 13.6839L406.713 26.2161C406.307 26.0355 405.719 25.8774 404.952 25.7419C404.184 25.6065 403.348 25.5387 402.445 25.5387C401.09 25.5387 399.916 25.7645 398.923 26.2161C397.929 26.6226 397.139 27.2323 396.552 28.0452C396.01 28.8581 395.739 29.8968 395.739 31.1613V47.4194H380.159Z" fill="white"/>
</svg>
