<svg width="524" height="729" viewBox="0 0 524 729" fill="none" xmlns="http://www.w3.org/2000/svg">
<g clip-path="url(#clip0_74_10710)">
<path d="M0 8C0 3.58172 3.58172 0 8 0H516C520.418 0 524 3.58172 524 8V721C524 725.418 520.418 729 516 729H8.00001C3.58173 729 0 725.418 0 721V8Z" fill="url(#paint0_linear_74_10710)"/>
<path d="M200.771 568.5L383.329 160.5L488.235 160.5L309.586 568.5L200.771 568.5Z" stroke="url(#paint1_linear_74_10710)"/>
<path d="M34.7705 568.5L216.681 160.5L321.236 160.5L143.223 568.5L34.7705 568.5Z" stroke="url(#paint2_linear_74_10710)"/>
<path d="M103.539 41.0052L101.075 45.8675L98.6099 41.0052H93.4603L98.6099 50.771L95.1328 57.6935H100.106L108.689 41.0052H103.539Z" fill="white"/>
<path d="M110.315 41.0052L101.921 57.6935H106.887L115.457 41.0052H110.315Z" fill="#0D0DFC"/>
<path d="M31.2387 51.2185C30.2505 51.2185 29.2962 51.085 28.3757 50.8179C27.4687 50.5509 26.6768 50.1504 26 49.6164L27.665 47.2333C28.0305 47.5537 28.5111 47.8407 29.1067 48.0944C29.7023 48.3347 30.2979 48.4549 30.8935 48.4549C31.1237 48.4549 31.3267 48.4282 31.5027 48.3748C31.6922 48.3214 31.787 48.2279 31.787 48.0944C31.787 47.9876 31.7328 47.9075 31.6245 47.8541C31.5298 47.8007 31.3132 47.7473 30.9747 47.6939L30.2438 47.5537C28.7683 47.2733 27.7259 46.8728 27.1168 46.3521C26.5076 45.8315 26.2031 45.1306 26.2031 44.2494C26.2031 43.702 26.379 43.168 26.731 42.6473C27.0965 42.1133 27.6718 41.6727 28.4569 41.3256C29.242 40.9785 30.2776 40.8049 31.5636 40.8049C32.6195 40.8049 33.567 40.9384 34.4063 41.2055C35.2456 41.4591 35.9292 41.8129 36.4571 42.2668L34.853 44.5498C34.474 44.2561 33.9867 44.0224 33.3911 43.8489C32.809 43.662 32.2743 43.5685 31.787 43.5685C31.5704 43.5685 31.3944 43.5819 31.259 43.6086C31.1237 43.6353 31.0221 43.6753 30.9544 43.7287C30.9003 43.7688 30.8732 43.8222 30.8732 43.8889C30.8732 43.9824 30.9409 44.0692 31.0763 44.1493C31.2116 44.2294 31.4756 44.3028 31.8682 44.3696L33.3098 44.6099C34.4063 44.7834 35.205 45.1306 35.7058 45.6512C36.2202 46.1719 36.4774 46.8127 36.4774 47.5737C36.4774 48.2279 36.2947 48.8354 35.9292 49.3961C35.5772 49.9435 35.0155 50.384 34.2439 50.7178C33.4858 51.0516 32.4841 51.2185 31.2387 51.2185Z" fill="white"/>
<path d="M37.4944 51.0182V37H42.1646V43.0479C42.4353 42.3269 42.8347 41.7729 43.3626 41.3857C43.9041 40.9985 44.5606 40.8049 45.3322 40.8049C46.009 40.8049 46.5843 40.9384 47.0581 41.2055C47.5319 41.4591 47.8906 41.8396 48.1343 42.3469C48.3915 42.8409 48.5201 43.4484 48.5201 44.1693V51.0182H43.8499V45.3709C43.8499 44.9169 43.789 44.6099 43.6672 44.4497C43.5589 44.2761 43.3829 44.1893 43.1392 44.1893C42.9227 44.1893 42.7399 44.2494 42.591 44.3696C42.4421 44.4764 42.3338 44.6499 42.2661 44.8902C42.1984 45.1172 42.1646 45.4109 42.1646 45.7714V51.0182H37.4944Z" fill="white"/>
<path d="M55.3653 40.8049C56.5024 40.8049 57.4906 41.0119 58.3298 41.4257C59.1826 41.8263 59.8459 42.4137 60.3197 43.188C60.7935 43.9624 61.0304 44.9036 61.0304 46.0117C61.0304 47.1065 60.7935 48.0477 60.3197 48.8354C59.8459 49.6097 59.1826 50.2038 58.3298 50.6177C57.4906 51.0182 56.5024 51.2185 55.3653 51.2185C54.2417 51.2185 53.2536 51.0182 52.4007 50.6177C51.5479 50.2038 50.8846 49.6097 50.4108 48.8354C49.9371 48.0477 49.7002 47.1065 49.7002 46.0117C49.7002 44.9036 49.9371 43.9624 50.4108 43.188C50.8846 42.4137 51.5479 41.8263 52.4007 41.4257C53.2536 41.0119 54.2417 40.8049 55.3653 40.8049ZM55.3653 43.909C55.1622 43.909 54.9863 43.969 54.8373 44.0892C54.6884 44.196 54.5734 44.4029 54.4922 44.71C54.4245 45.0171 54.3906 45.451 54.3906 46.0117C54.3906 46.5724 54.4245 47.0063 54.4922 47.3134C54.5734 47.6071 54.6884 47.814 54.8373 47.9342C54.9863 48.0544 55.1622 48.1144 55.3653 48.1144C55.5819 48.1144 55.7579 48.0544 55.8932 47.9342C56.0421 47.814 56.1504 47.6071 56.2181 47.3134C56.2993 47.0063 56.3399 46.5724 56.3399 46.0117C56.3399 45.451 56.2993 45.0171 56.2181 44.71C56.1504 44.4029 56.0421 44.196 55.8932 44.0892C55.7579 43.969 55.5819 43.909 55.3653 43.909Z" fill="white"/>
<path d="M62.2214 55.2237V41.0052H66.4652L66.6885 45.4109L66.1606 44.8902C66.2012 44.1026 66.3704 43.4016 66.6682 42.7875C66.966 42.1734 67.3789 41.6928 67.9068 41.3456C68.4348 40.9852 69.0575 40.8049 69.7749 40.8049C70.6142 40.8049 71.3181 41.0119 71.8866 41.4257C72.4687 41.8263 72.9087 42.407 73.2065 43.168C73.5043 43.929 73.6532 44.8569 73.6532 45.9516C73.6532 47.0597 73.4975 48.0076 73.1862 48.7953C72.8884 49.583 72.4484 50.1838 71.8663 50.5977C71.2843 51.0115 70.5803 51.2185 69.7546 51.2185C68.7664 51.2185 68.0084 50.9047 67.4804 50.2772C66.9525 49.6364 66.6209 48.8354 66.4855 47.8741L66.8916 47.2733V55.2237H62.2214ZM67.8865 47.9742C68.2114 47.9742 68.4686 47.8474 68.6581 47.5938C68.8476 47.3267 68.9424 46.7994 68.9424 46.0117C68.9424 45.224 68.8476 44.6967 68.6581 44.4296C68.4686 44.1626 68.2114 44.0291 67.8865 44.0291C67.6835 44.0291 67.5075 44.1026 67.3586 44.2494C67.2097 44.3829 67.0946 44.5965 67.0134 44.8902C66.9322 45.1706 66.8916 45.5444 66.8916 46.0117C66.8916 46.4389 66.9254 46.7994 66.9931 47.0931C67.0608 47.3868 67.1691 47.6071 67.318 47.754C67.4669 47.9008 67.6564 47.9742 67.8865 47.9742Z" fill="white"/>
<path d="M80.2958 44.7701C80.2958 44.463 80.2214 44.2227 80.0725 44.0492C79.9371 43.8756 79.7205 43.7888 79.4227 43.7888C79.1384 43.7888 78.9015 43.8689 78.712 44.0291C78.5225 44.1893 78.4142 44.5097 78.3871 44.9904L74.4479 44.4296C74.5427 43.3215 75.03 42.4404 75.9099 41.7862C76.7898 41.132 78.069 40.8049 79.7476 40.8049C80.9253 40.8049 81.8931 40.9651 82.6512 41.2856C83.4228 41.606 83.9913 42.0532 84.3568 42.6273C84.7359 43.2014 84.9254 43.8689 84.9254 44.6299V47.7339C84.9254 48.2813 85.1893 48.555 85.7173 48.555C85.8662 48.555 85.9812 48.535 86.0625 48.4949L85.8594 50.858C85.3585 51.0983 84.7562 51.2185 84.0522 51.2185C83.416 51.2185 82.8475 51.1317 82.3466 50.9581C81.8593 50.7712 81.4735 50.4975 81.1892 50.1371C80.9185 49.7632 80.7831 49.2893 80.7831 48.7152V48.5149H81.2298C81.2163 49.0223 81.0471 49.4829 80.7222 49.8967C80.4109 50.2973 79.9912 50.6177 79.4633 50.858C78.9354 51.0983 78.333 51.2185 77.6561 51.2185C76.9387 51.2185 76.3295 51.1117 75.8287 50.898C75.3414 50.6844 74.9691 50.3774 74.7119 49.9768C74.4547 49.5763 74.3261 49.1024 74.3261 48.555C74.3261 47.8207 74.563 47.2266 75.0368 46.7727C75.5106 46.3054 76.1942 45.985 77.0876 45.8114L80.6207 45.0905L80.6004 46.7126L79.5039 46.9729C79.2196 47.0397 79.0166 47.1532 78.8948 47.3134C78.7729 47.4602 78.712 47.6472 78.712 47.8741C78.712 48.0877 78.7797 48.2613 78.9151 48.3948C79.0504 48.5283 79.2399 48.5951 79.4836 48.5951C79.5919 48.5951 79.6934 48.575 79.7882 48.535C79.8965 48.4949 79.9845 48.4348 80.0521 48.3547C80.1334 48.2746 80.1943 48.1812 80.2349 48.0744C80.2755 47.9542 80.2958 47.8207 80.2958 47.6739V44.7701Z" fill="white"/>
<path d="M91.4005 37V47.033C91.4005 47.4335 91.4614 47.7273 91.5832 47.9142C91.705 48.1011 91.9216 48.1945 92.233 48.1945C92.3819 48.1945 92.5105 48.1879 92.6188 48.1745C92.7406 48.1478 92.8557 48.1211 92.964 48.0944L92.7609 50.5776C92.5037 50.7645 92.1315 50.9181 91.6441 51.0382C91.1703 51.1584 90.7033 51.2185 90.2431 51.2185C88.9842 51.2185 88.084 50.9514 87.5425 50.4174C87.001 49.8834 86.7303 48.9889 86.7303 47.7339V37H91.4005Z" fill="white"/>
<path d="M114.279 57.8175V55.1741L117.446 51.7296L118.401 50.8084L116.918 50.8485H114.279V47.8045H123.558V50.4479L120.451 53.8524L119.457 54.8136L121.122 54.7735H123.761V57.8175H114.279Z" fill="white"/>
<path d="M130.298 58C129.079 58 128.037 57.7997 127.171 57.3992C126.304 56.9853 125.641 56.3912 125.181 55.6169C124.72 54.8426 124.49 53.9013 124.49 52.7932C124.49 51.6851 124.72 50.7439 125.181 49.9696C125.654 49.1952 126.311 48.6078 127.15 48.2073C128.003 47.7934 128.991 47.5865 130.115 47.5865C131.265 47.5865 132.24 47.7934 133.039 48.2073C133.851 48.6078 134.467 49.1752 134.886 49.9095C135.306 50.6438 135.516 51.4982 135.516 52.4728C135.516 52.6864 135.502 52.9067 135.475 53.1337C135.462 53.3606 135.441 53.5409 135.414 53.6744H127.495V51.9722H133.384C133.384 51.9722 132.084 53.6045 131.619 52.811C131.171 52.0453 131.103 51.565 130.968 51.1912C130.846 50.8173 130.568 50.6304 130.135 50.6304C129.851 50.6304 129.614 50.6972 129.424 50.8307C129.248 50.9642 129.12 51.1978 129.039 51.5316C128.957 51.852 128.917 52.2993 128.917 52.8733C128.917 53.4474 128.971 53.888 129.079 54.1951C129.188 54.4888 129.343 54.689 129.546 54.7958C129.763 54.8893 130.034 54.936 130.358 54.936C130.71 54.936 130.981 54.8626 131.171 54.7157C131.374 54.5555 131.509 54.3419 131.577 54.0749L135.333 55.0762C135.184 55.7304 134.853 56.2778 134.338 56.7183C133.824 57.1456 133.208 57.466 132.49 57.6796C131.787 57.8932 131.056 58 130.298 58Z" fill="white"/>
<path d="M136.655 57.8175V47.8045H140.858L140.959 50.3078C141.189 49.48 141.541 48.8258 142.015 48.3452C142.502 47.8512 143.145 47.6042 143.944 47.6042C144.255 47.6042 144.492 47.6309 144.655 47.6843C144.817 47.7377 144.932 47.7912 145 47.8446L144.614 51.5494C144.492 51.496 144.316 51.4492 144.086 51.4092C143.856 51.3691 143.606 51.3491 143.335 51.3491C142.929 51.3491 142.577 51.4159 142.279 51.5494C141.981 51.6695 141.744 51.8498 141.568 52.0901C141.406 52.3304 141.325 52.6374 141.325 53.0113V57.8175H136.655Z" fill="white"/>
</g>
<defs>
<linearGradient id="paint0_linear_74_10710" x1="269.5" y1="10" x2="262" y2="729" gradientUnits="userSpaceOnUse">
<stop stop-color="#0B0C5B"/>
<stop offset="0.849899" stop-color="#010A1E"/>
</linearGradient>
<linearGradient id="paint1_linear_74_10710" x1="344.5" y1="569" x2="344.5" y2="160" gradientUnits="userSpaceOnUse">
<stop stop-color="#FFF0EA" stop-opacity="0.13"/>
<stop offset="1" stop-color="#FFF0EA" stop-opacity="0.44"/>
</linearGradient>
<linearGradient id="paint2_linear_74_10710" x1="178" y1="569" x2="178" y2="160" gradientUnits="userSpaceOnUse">
<stop stop-color="#FFF0EA" stop-opacity="0.13"/>
<stop offset="1" stop-color="#FFF0EA" stop-opacity="0.44"/>
</linearGradient>
<clipPath id="clip0_74_10710">
<path d="M0 8C0 3.58172 3.58172 0 8 0H516C520.418 0 524 3.58172 524 8V721C524 725.418 520.418 729 516 729H8.00001C3.58173 729 0 725.418 0 721V8Z" fill="white"/>
</clipPath>
</defs>
</svg>
